<?xml version="1.0" encoding="utf-8"?>
<!-- Generator: Adobe Illustrator 16.0.0, SVG Export Plug-In . SVG Version: 6.00 Build 0)  -->
<!DOCTYPE svg PUBLIC "-//W3C//DTD SVG 1.1//EN" "http://www.w3.org/Graphics/SVG/1.1/DTD/svg11.dtd">
<svg version="1.1" id="group" xmlns="http://www.w3.org/2000/svg" xmlns:xlink="http://www.w3.org/1999/xlink" x="0px" y="0px"
	 width="720px" height="720px" viewBox="0 0 720 720" enable-background="new 0 0 720 720" xml:space="preserve">
<circle id="ring" fill="none" stroke="#FFFFFF" strokeWidth="8" strokeMiterlimit="10" cx="360" cy="360" r="314.247"/>
<g id="logoGithub">
	<defs>
		<rect id="SVGID_1_" x="97.538" y="96.594" width="523.779" height="516.403"/>
	</defs>
	<path clipPath="url(#SVGID_2_)" fill="#FFFFFF" d="M589.425,360.4c0-127.197-103.112-230.308-230.307-230.308
		c-127.196,0-230.311,103.111-230.311,230.308c0,100.957,64.967,186.735,155.368,217.831c5.514-3.978,11.858-8.883,11.858-17.149
		c0-12.666-0.274-45.25-0.274-45.25s-9.999,1.7-24.264,1.7c-35.949,0-47.314-22.813-52.726-35.581
		c-7.041-16.627-16.17-24.437-25.873-30.679c-5.956-3.838-7.325-8.355-0.432-9.647c31.817-5.959,39.957,35.886,61.206,42.56
		c15.167,4.758,34.668,2.702,44.371-3.541c1.279-12.778,10.545-23.835,18.261-29.654c-54.051-5.167-86.097-23.838-102.713-53.846
		l-1.779-3.361l-4.179-9.531l-1.232-3.418c-5.205-15.231-7.511-32.676-7.511-52.164c0-34.595,10.842-47.646,25.394-66.091
		c-11.127-39.44,3.997-66.396,3.997-66.396s23.394-4.824,67.62,26.671c23.963-10.216,87.877-11.064,118.118-2.27
		c18.544-12.2,52.497-29.508,66.192-24.664c3.71,5.937,11.697,23.245,4.851,61.269c4.645,8.341,28.816,26.103,28.908,76.33
		c-0.391,18.52-2.329,34.164-5.923,47.385l-1.998,6.767c0,0-1.143,3.185-2.385,6.228l-1.46,3.36
		c-16.038,35.025-48.927,48.099-102.074,53.539c17.22,10.78,22.162,24.311,22.162,60.913c0,36.604-0.492,41.518-0.377,49.938
		c0.098,7.444,6.053,12.792,11.404,16.845C524.108,547.61,589.425,461.634,589.425,360.4"/>
</g>
</svg>
